<svg width="52" height="52" viewBox="0 0 52 52" fill="none" xmlns="http://www.w3.org/2000/svg">
<path d="M47.6667 3.25H4.33334C2.53842 3.25 1.08334 4.70507 1.08334 6.5V36.8333C1.08334 38.6283 2.53842 40.0833 4.33334 40.0833H47.6667C49.4616 40.0833 50.9167 38.6283 50.9167 36.8333V6.5C50.9167 4.70507 49.4616 3.25 47.6667 3.25Z" stroke="#0073A7" stroke-width="2" stroke-linecap="round" stroke-linejoin="round"/>
<path d="M20.5833 40.0833C20.5833 40.0833 21.0383 48.75 16.25 48.75H35.75C30.9617 48.75 31.4167 40.0833 31.4167 40.0833M1.08334 31.4167H50.9167" stroke="#0073A7" stroke-width="2" stroke-linecap="round" stroke-linejoin="round"/>
<path d="M26 36.8333C26.5983 36.8333 27.0833 36.3483 27.0833 35.75C27.0833 35.1517 26.5983 34.6667 26 34.6667C25.4017 34.6667 24.9167 35.1517 24.9167 35.75C24.9167 36.3483 25.4017 36.8333 26 36.8333Z" stroke="#0073A7" stroke-linecap="round" stroke-linejoin="round"/>
<path d="M20.5833 11.9167L14.0833 17.3333L20.5833 22.75M31.4167 11.9167L37.9167 17.3333L31.4167 22.75M22.75 24.9167L29.25 9.75" stroke="#0073A7" stroke-width="2" stroke-linecap="round" stroke-linejoin="round"/>
</svg>
