<svg width="12" height="18" viewBox="0 0 12 18" fill="none" xmlns="http://www.w3.org/2000/svg">
<g clip-path="url(#clip0_215_321)">
<path d="M11.9975 3.4494C11.9721 2.08102 11.7758 1.94787 11.7019 1.8978C11.5587 1.80077 11.3397 1.8067 11.04 1.91702C11.0315 1.59884 10.9666 1.07438 10.6329 1.03306C10.4156 1.00623 10.2102 1.2387 9.94999 1.5332C9.7546 1.75434 9.53754 1.99959 9.31764 2.11759C9.20918 1.07956 9.00978 0.12181 9.00724 0.109703C8.99115 0.0330243 8.92385 -0.0144398 8.85633 0.00406011C8.78912 0.0224172 8.74761 0.099524 8.76374 0.176238C8.7669 0.191238 9.07946 1.6933 9.1292 2.95555C9.1122 4.63408 9.16485 6.38532 8.84822 7.03053C8.73143 7.21471 8.54894 7.30471 8.31326 7.31842C8.00364 7.31842 7.75178 7.03107 7.75178 6.67782V5.16443C7.75178 5.08554 7.69571 5.02158 7.62656 5.02158C7.55742 5.02158 7.50135 5.08554 7.50135 5.16443V6.67782C7.50135 7.03107 7.24946 7.31842 6.93984 7.31842C6.63022 7.31842 6.37836 7.03107 6.37836 6.67782V4.6284C6.37836 4.54951 6.3223 4.48554 6.25315 4.48554C6.184 4.48554 6.12794 4.54951 6.12794 4.6284V6.67782C6.12794 7.03107 5.87604 7.31842 5.56643 7.31842C5.25681 7.31842 5.00495 7.03107 5.00495 6.67782V3.98512C5.00495 3.90622 4.94888 3.84226 4.87973 3.84226C4.81059 3.84226 4.75452 3.90622 4.75452 3.98512V6.67782C4.75452 6.94864 4.60621 7.18021 4.39758 7.27375C4.33444 7.29867 4.26588 7.31282 4.19301 7.31839C3.88339 7.31839 3.63153 7.03103 3.63153 6.67778V2.02059C3.63153 1.9417 3.57547 1.87773 3.50632 1.87773C3.43717 1.87773 3.38111 1.9417 3.38111 2.02059V2.90512C2.97943 2.72201 2.59271 2.24337 2.24497 1.8038C2.41585 1.18438 2.67316 0.658307 3.01079 0.239702C3.05762 0.181631 3.05434 0.091274 3.00347 0.0378457C2.9526 -0.0155112 2.87341 -0.0118327 2.82655 0.0462028C2.49292 0.459808 2.23295 0.968485 2.05174 1.56066C1.725 1.15516 1.45407 0.869271 1.19623 0.958735C0.779117 1.10359 0.79912 1.77852 0.852053 2.18527C0.609768 2.06391 0.38758 2.04419 0.211689 2.21398C-0.160815 2.57362 0.0281917 3.32294 0.24703 4.19058C0.386923 4.74511 0.531574 5.31854 0.531574 5.80879C0.531574 6.21454 0.471378 6.60007 0.413186 6.97293C0.298711 7.70607 0.190622 8.39856 0.706275 8.81127C0.806851 8.89177 0.933722 8.93217 1.08795 8.93217C1.34341 8.93213 1.67425 8.82085 2.0842 8.5981C2.16521 8.91263 2.38496 9.52534 2.86774 9.52534C3.13673 9.52534 3.48901 9.1846 3.94472 8.4836C4.07293 8.28638 4.18969 8.0906 4.28438 7.92535L4.21342 13.1919L3.66559 10.6686C3.60173 10.3745 3.44331 10.1292 3.23104 9.99584C3.0457 9.87938 2.83465 9.8567 2.6366 9.93177C2.19858 10.098 1.94747 10.6952 2.0769 11.2631C2.21789 11.8816 2.41022 12.8081 2.52588 13.709C2.59065 14.2135 2.60301 14.6732 2.61494 15.1178C2.63093 15.7124 2.64471 16.226 2.78185 16.689C3.02538 17.5113 3.74234 17.9638 3.77271 17.9826C3.84549 18.0004 3.8992 17.9814 3.9424 17.9255C3.97549 17.8563 3.95311 17.7696 3.89247 17.7317C3.88587 17.7276 3.23067 17.312 3.01906 16.5975C2.89388 16.1747 2.88061 15.6809 2.86524 15.109C2.85365 14.6774 2.84054 14.1883 2.77368 13.6675C2.65638 12.7539 2.46184 11.8166 2.31925 11.1911C2.22234 10.7659 2.40017 10.3226 2.71564 10.2028C2.84658 10.153 2.98672 10.1684 3.11021 10.2461C3.26153 10.3411 3.37535 10.5202 3.42249 10.7373L4.20225 14.3288C4.21893 14.3761 4.2476 14.4077 4.28354 14.4297C4.28933 14.432 4.86468 14.6613 5.20644 15.3468C5.55422 16.0445 5.55344 17.0643 5.55337 17.0746C5.553 17.1534 5.60872 17.2178 5.67787 17.2182C5.67812 17.2182 5.67837 17.2182 5.67862 17.2182C5.74739 17.2182 5.80336 17.1549 5.8038 17.0763C5.80405 17.0315 5.80552 15.9706 5.42409 15.2055C5.11494 14.5854 4.6434 14.2962 4.45032 14.1988L4.54038 7.51478C4.67999 7.43907 4.79766 7.31914 4.8797 7.17103C5.01744 7.41971 5.25584 7.58882 5.52918 7.60296V12.6079C5.27071 12.7195 5.11732 12.8234 5.10245 12.8337C5.04332 12.8745 5.02435 12.9621 5.06004 13.0296C5.09566 13.0971 5.17254 13.1189 5.23183 13.0783C5.24012 13.0726 6.0745 12.5113 7.20363 12.6206C7.52089 12.6582 7.80718 12.7399 8.05025 12.8832C8.51375 13.1532 8.68736 13.528 8.69741 13.5506C8.71935 13.6006 8.76358 13.6296 8.80953 13.6296C8.82835 13.6296 8.84741 13.6248 8.86538 13.6146C8.92726 13.5793 8.95234 13.4935 8.92147 13.4229C8.90995 13.3967 8.71897 12.9757 8.21863 12.6622V9.18117C8.21863 8.85727 8.44961 8.59374 8.7335 8.59374C9.01062 8.59374 9.23657 8.84113 9.24793 9.15692C9.32669 11.3518 9.4467 15.7433 9.38162 16.4467C9.29285 17.4056 9.03532 17.7599 9.03347 17.7623C8.98761 17.8214 8.9924 17.9117 9.04418 17.964C9.06803 17.9881 9.09764 17.9999 9.12713 17.9999C9.16172 17.9999 9.19619 17.9837 9.22092 17.9518C9.23356 17.9355 9.53222 17.5401 9.63064 16.4767C9.70101 15.7164 9.56913 11.1236 9.4982 9.1452C9.48132 8.67574 9.14544 8.30803 8.73353 8.30803C8.53544 8.30803 8.3547 8.39435 8.21866 8.53574V7.59753L8.37899 7.60399C8.60669 7.60399 8.81285 7.49828 8.96054 7.32571C9.28174 7.70078 10.2192 8.72206 10.9044 8.72206C10.9712 8.72206 11.0357 8.71235 11.0969 8.69131C11.2901 8.62506 11.4459 8.33735 11.5871 7.78596C11.6986 7.35085 11.7964 6.75893 11.87 6.07414C11.9654 5.18633 12.0119 4.22961 11.9975 3.4494ZM1.26916 1.23209C1.41569 1.18073 1.73946 1.59098 2.02525 1.95248C2.42471 2.45773 2.87419 3.02623 3.38111 3.20855V3.6383C3.24312 3.6649 2.96152 3.6973 2.62549 3.61462C2.46193 3.57437 2.1561 3.28287 1.86032 3.00091C1.62414 2.7758 1.37519 2.53851 1.13538 2.36259C1.06325 1.99937 1.01101 1.3217 1.26916 1.23209ZM0.850049 8.57735C0.482992 8.28356 0.535424 7.81896 0.659696 7.02303C0.717012 6.65593 0.781966 6.23979 0.781966 5.80879C0.781966 5.27829 0.632369 4.68515 0.487687 4.11158C0.300965 3.3714 0.124636 2.6723 0.373463 2.43209C0.621632 2.19234 1.24475 2.78644 1.6998 3.22015C2.04804 3.55212 2.3488 3.83876 2.57271 3.89387C2.91848 3.97894 3.21079 3.95651 3.38114 3.92787V4.41026C2.70584 4.46915 1.97292 4.13022 1.02384 3.32437C0.979299 3.28651 0.918102 3.28669 0.873746 3.3249C0.829358 3.36305 0.812329 3.43005 0.831956 3.48937C1.29687 4.89579 1.35036 6.39139 0.990944 7.93464C0.978548 7.98803 0.994199 8.04478 1.03114 8.08042C1.05418 8.10263 1.08291 8.11417 1.11199 8.11417L3.41276 6.93314C3.44112 7.04575 3.48766 7.14964 3.54864 7.24035C2.68133 7.97053 1.27082 8.91388 0.850049 8.57735ZM2.20813 5.29757C2.2198 5.36575 2.27217 5.41307 2.3309 5.41307C2.33885 5.41307 2.34692 5.41222 2.35503 5.4104C2.69536 5.33457 3.04003 5.31968 3.38114 5.36468V5.65561C2.98704 5.74936 2.6319 5.93932 2.32438 6.22189C2.27051 6.27139 2.26203 6.36128 2.30542 6.42275C2.33014 6.45778 2.36639 6.476 2.40302 6.476C2.43056 6.476 2.45833 6.46568 2.48146 6.44439C2.74438 6.20286 3.04645 6.03625 3.38114 5.94786V6.63571L1.29577 7.71892C1.5667 6.37332 1.53261 5.06354 1.19457 3.81544C1.82085 4.30529 2.58207 4.75651 3.38117 4.69658V5.07672C3.02388 5.03297 2.66324 5.05065 2.30707 5.12997C2.23915 5.14508 2.19485 5.22015 2.20813 5.29757ZM2.86774 9.23959C2.5343 9.23959 2.3684 8.69742 2.31302 8.46713C2.39666 8.41699 2.4829 8.3632 2.5724 8.30488C3.08636 7.97003 3.55321 7.58982 3.73233 7.43996C3.85723 7.53857 4.00739 7.5981 4.16935 7.60342C3.75609 8.35406 3.15532 9.23959 2.86774 9.23959ZM6.74874 12.3245C6.37241 12.342 6.04298 12.4205 5.77963 12.5112V7.57149C5.97781 7.50989 6.14594 7.36464 6.25312 7.17114C6.36427 7.37182 6.54098 7.52057 6.74874 7.57799V12.3245ZM7.96827 12.5286C7.76154 12.4355 7.51591 12.3642 7.22489 12.336C7.14822 12.3286 7.07297 12.324 6.99916 12.3219V7.60139C7.2632 7.57949 7.49249 7.41307 7.6265 7.17114C7.70902 7.3201 7.82759 7.44049 7.96827 7.51614V12.5286ZM10.1263 1.73598C10.296 1.54388 10.5072 1.30463 10.6058 1.31705C10.7337 1.33291 10.7919 1.71845 10.7903 2.02441C10.6148 2.10884 10.4183 2.21998 10.1988 2.35987C9.87236 2.56798 9.56716 2.79383 9.37909 2.93805C9.37223 2.76608 9.36062 2.58994 9.34569 2.41373C9.6363 2.28994 9.89512 1.99762 10.1263 1.73598ZM9.25031 5.97904C9.49751 6.04882 9.71588 6.17268 9.90034 6.34946C9.92382 6.37196 9.9524 6.38296 9.98082 6.38296C10.0165 6.38296 10.052 6.36564 10.0767 6.332C10.1212 6.27161 10.1144 6.18146 10.0614 6.13071C9.83746 5.91604 9.57217 5.7685 9.27163 5.69072C9.29492 5.36804 9.31745 5.02815 9.33624 4.69397L10.3154 4.77218C10.3183 4.77243 10.3213 4.77254 10.3242 4.77254C10.3894 4.77254 10.4444 4.71497 10.449 4.63965C10.4538 4.56094 10.4018 4.49268 10.3328 4.48715L9.35139 4.40872C9.36121 4.21097 9.36932 4.01808 9.37514 3.83454C9.95528 3.68147 10.5576 3.39973 11.1697 2.99483C11.1961 4.42051 11.1328 6.27029 10.735 7.59292C10.171 7.0671 9.67293 6.67189 9.21825 6.38921C9.22871 6.25914 9.23948 6.12189 9.25031 5.97904ZM11.7494 3.79287C11.7461 4.73501 11.6662 5.82889 11.5359 6.71907C11.3077 8.27803 11.0531 8.40813 11.0248 8.41785C10.5154 8.59274 9.52355 7.58053 9.10757 7.08835C9.14666 6.97267 9.17449 6.84253 9.19277 6.70014C9.64457 6.99303 10.1434 7.40074 10.7117 7.9416C10.7914 7.97106 10.8592 7.9591 10.9087 7.88346C11.4001 6.4345 11.455 4.28819 11.4146 2.74284C11.4133 2.69187 11.3882 2.64562 11.3489 2.62141C11.3098 2.59726 11.2621 2.59866 11.224 2.6253C10.594 3.06619 9.97538 3.37269 9.38263 3.53872C9.38422 3.4484 9.385 3.36198 9.385 3.27933C9.52092 3.17176 9.90426 2.87483 10.3227 2.60826C11.2492 2.01798 11.5147 2.10312 11.5734 2.14305C11.6239 2.18437 11.7539 2.56144 11.7494 3.79287Z" fill="black"/>
</g>
<defs>
<clipPath id="clip0_215_321">
<rect width="12" height="18" fill="white"/>
</clipPath>
</defs>
</svg>
