<svg width="52" height="52" viewBox="0 0 52 52" fill="none" xmlns="http://www.w3.org/2000/svg">
<path d="M48.5 8.4L43.3 5.4C41.9 4.6 40 5.1 39.2 6.5L37.2 10L36 12.2V5C36 3.3 34.7 2 33 2H10.5L10.2 2.3L2.2 10.3L2 10.6V47C2 48.7 3.3 50 5 50H33C34.7 50 36 48.7 36 47V36.2C37.4 33.9 48.4 14.7 49.7 12.5C50.5 11.1 50 9.2 48.5 8.4ZM24 41.7L26.7 43.3L23.3 46.1L24 41.7ZM28.4 41.9L24.3 39.5L25 35.3C25.2 35.4 32.2 39.4 31.7 39.2L28.4 41.9ZM9.9 5.4V10H5.4L9.9 5.4ZM4 47V12H11C11.6 12 12 11.6 12 11V4H33C33.6 4 34 4.4 34 5V15.7L23.7 33.4L23.2 34.2V34.3C23.2 34.4 23.1 34.5 23.1 34.6C22.9 36 23.9 29.6 21 48H5C4.4 48 4 47.6 4 47ZM34 47C34 47.6 33.6 48 33 48H24.2C24.3 47.9 33.5 40.5 33.7 40.3C33.8 40.2 34.1 39.6 34 39.7V47ZM36 32.2L32.9 37.5C32.8 37.4 25.7 33.3 26 33.5L38.5 11.8C38.6 11.9 45.7 16 45.4 15.8L36 32.2ZM47.9 11.5L46.4 14.1C46.3 14 39.2 9.9 39.5 10.1C40.5 8.7 41 6.3 42.4 7.1C46 9.6 48.8 10 47.9 11.5Z" fill="#0073A7"/>
<path d="M7 16H9V18H7V16ZM7 22H9V24H7V22ZM7 28H9V30H7V28ZM7 34H9V36H7V34ZM7 40H9V42H7V40ZM13 18H26C26.6 18 27 17.6 27 17C27 16.4 26.6 16 26 16H13C12.4 16 12 16.4 12 17C12 17.6 12.4 18 13 18ZM16 12H30C30.6 12 31 11.6 31 11C31 10.4 30.6 10 30 10H16C15.4 10 15 10.4 15 11C15 11.6 15.4 12 16 12ZM13 24H24C24.6 24 25 23.6 25 23C25 22.4 24.6 22 24 22H13C12.4 22 12 22.4 12 23C12 23.6 12.4 24 13 24ZM13 30H22C22.6 30 23 29.6 23 29C23 28.4 22.6 28 22 28H13C12.4 28 12 28.4 12 29C12 29.6 12.4 30 13 30ZM19 34H13C12.4 34 12 34.4 12 35C12 35.6 12.4 36 13 36H19C19.6 36 20 35.6 20 35C20 34.4 19.5 34 19 34ZM17 40H13C12.4 40 12 40.4 12 41C12 41.6 12.4 42 13 42H17C17.6 42 18 41.6 18 41C18 40.4 17.5 40 17 40Z" fill="#0073A7"/>
</svg>
