<svg width="33" height="33" viewBox="0 0 33 33" fill="none" xmlns="http://www.w3.org/2000/svg">
<path fill-rule="evenodd" clip-rule="evenodd" d="M24.7407 9.6921C24.7407 8.93723 24.1302 8.3226 23.3739 8.31848L12.3835 8.24973H12.3753C11.619 8.24973 11.0058 8.86023 11.0003 9.61648C10.9948 10.3755 11.6067 10.9956 12.367 10.9997L20.0093 11.0479L8.65316 22.4026C8.11553 22.9402 8.11553 23.8106 8.65316 24.3469C8.92128 24.6164 9.27328 24.7497 9.62528 24.7497C9.97728 24.7497 10.3293 24.6164 10.5974 24.3469L21.9934 12.9509L22.0003 20.6261C22.0003 21.3851 22.6163 21.9997 23.3753 21.9997H23.3767C24.1357 21.9997 24.7503 21.3823 24.7503 20.6233L24.7407 9.6921Z" fill="white"/>
<mask id="mask0_215_481" style="mask-type:luminance" maskUnits="userSpaceOnUse" x="8" y="8" width="17" height="17">
<path fill-rule="evenodd" clip-rule="evenodd" d="M24.7407 9.6921C24.7407 8.93723 24.1302 8.3226 23.3739 8.31848L12.3835 8.24973H12.3753C11.619 8.24973 11.0058 8.86023 11.0003 9.61648C10.9948 10.3755 11.6067 10.9956 12.367 10.9997L20.0093 11.0479L8.65316 22.4026C8.11553 22.9402 8.11553 23.8106 8.65316 24.3469C8.92128 24.6164 9.27328 24.7497 9.62528 24.7497C9.97728 24.7497 10.3293 24.6164 10.5974 24.3469L21.9934 12.9509L22.0003 20.6261C22.0003 21.3851 22.6163 21.9997 23.3753 21.9997H23.3767C24.1357 21.9997 24.7503 21.3823 24.7503 20.6233L24.7407 9.6921Z" fill="white"/>
</mask>
<g mask="url(#mask0_215_481)">
</g>
</svg>
