<svg width="52" height="52" viewBox="0 0 52 52" fill="none" xmlns="http://www.w3.org/2000/svg">
<g clip-path="url(#clip0_215_348)">
<path d="M5.75152 39.7879H17.5697C17.8848 39.7879 18.2 39.5515 18.2 39.1576C18.2 38.7636 17.8848 38.6061 17.5697 38.6061H5.75152C5.43636 38.6061 5.12121 38.8424 5.12121 39.2364C5.12121 39.6303 5.43636 39.7879 5.75152 39.7879ZM17.5697 42.5455H5.75152C5.43636 42.5455 5.12121 42.7818 5.12121 43.1758C5.12121 43.5697 5.35758 43.8061 5.75152 43.8061H17.5697C17.8848 43.8061 18.2 43.5697 18.2 43.1758C18.2 42.7818 17.8848 42.5455 17.5697 42.5455ZM17.5697 46.4849H5.75152C5.43636 46.4849 5.12121 46.7212 5.12121 47.1152C5.12121 47.5091 5.35758 47.7455 5.75152 47.7455H17.5697C17.8848 47.7455 18.2 47.5091 18.2 47.1152C18.2 46.7212 17.8848 46.4849 17.5697 46.4849Z" fill="#0073A7"/>
<path d="M51.2121 0.236359H33.8788C33.5636 0.236359 33.2485 0.472722 33.2485 0.866662V12.6848H24.1879C23.5576 12.6848 22.8485 12.4485 22.3758 12.0545L19.6182 9.84848C18.9091 9.29696 17.9636 8.98181 17.0182 8.98181H5.12121C3.86061 8.98181 2.83636 10.0061 2.83636 11.2667V17.3333H2.44242C1.10303 17.3333 0.0787879 18.4364 0.157576 19.7758L1.02424 32.697V49.5576C1.02424 50.8182 2.04848 51.8424 3.30909 51.8424H51.1333C51.4485 51.8424 51.7636 51.6061 51.7636 51.2121V0.787874C51.7636 0.472722 51.5273 0.236359 51.2121 0.236359ZM4.01818 11.1879C4.01818 10.5576 4.49091 10.0848 5.12121 10.0848H17.0182C17.6485 10.0848 18.3576 10.3212 18.8303 10.7151L21.5879 12.9212C22.297 13.4727 23.2424 13.7879 24.1879 13.7879H33.3273V17.3333H4.01818V11.1879ZM2.28485 49.5576V32.697L1.41818 19.697C1.33939 19.0667 1.89091 18.5151 2.52121 18.5151H33.3273V50.5818H3.38788C2.75758 50.6606 2.28485 50.1091 2.28485 49.5576ZM50.5818 50.6606H34.5091V1.41818H50.6606V50.6606H50.5818Z" fill="#0073A7"/>
<path d="M37.4242 33.2485H47.6667C47.9818 33.2485 48.297 33.0121 48.297 32.6182V4.5697C48.297 4.25454 48.0606 3.93939 47.6667 3.93939H37.4242C37.1091 3.93939 36.7939 4.17576 36.7939 4.5697V32.697C36.8727 33.0121 37.1091 33.2485 37.4242 33.2485ZM38.0545 5.12121H47.1152V32.0667H38.0545V5.12121ZM37.4242 48.0606H47.6667C47.9818 48.0606 48.297 47.8242 48.297 47.4303C48.297 47.0364 48.0606 46.8 47.6667 46.8H37.4242C37.1091 46.8 36.7939 47.0364 36.7939 47.4303C36.7939 47.8242 37.1091 48.0606 37.4242 48.0606ZM39.3939 39.7091C39.3939 41.4424 40.8121 42.9394 42.5455 42.9394C44.2788 42.9394 45.697 41.5212 45.697 39.7091C45.697 37.897 44.2788 36.4788 42.5455 36.4788C40.8121 36.4788 39.3939 37.897 39.3939 39.7091ZM44.5152 39.7091C44.5152 40.8121 43.6485 41.7576 42.5455 41.7576C41.4424 41.7576 40.5758 40.8909 40.5758 39.7091C40.5758 38.5273 41.4424 37.6606 42.5455 37.6606C43.6485 37.6606 44.5152 38.5273 44.5152 39.7091Z" fill="#0073A7"/>
</g>
<defs>
<clipPath id="clip0_215_348">
<rect width="52" height="52" fill="white"/>
</clipPath>
</defs>
</svg>
