<svg width="27" height="28" viewBox="0 0 27 28" fill="none" xmlns="http://www.w3.org/2000/svg">
<path fill-rule="evenodd" clip-rule="evenodd" d="M13.5 15.75C12.5696 15.75 11.8125 14.9648 11.8125 14C11.8125 13.0352 12.5696 12.25 13.5 12.25C14.4304 12.25 15.1875 13.0352 15.1875 14C15.1875 14.9648 14.4304 15.75 13.5 15.75ZM13.5 9.91665C11.3287 9.91665 9.5625 11.7483 9.5625 14C9.5625 16.2517 11.3287 18.0833 13.5 18.0833C15.6712 18.0833 17.4375 16.2517 17.4375 14C17.4375 11.7483 15.6712 9.91665 13.5 9.91665ZM13.7472 19.8305C8.90291 19.9472 5.74278 15.6504 4.69428 13.9949C5.84853 12.1224 8.75553 8.28868 13.2533 8.16968C18.0784 8.04252 21.2565 12.3499 22.305 14.0054C21.1519 15.8779 18.2438 19.7115 13.7472 19.8305ZM24.6012 13.4197C23.8834 12.1224 19.9189 5.61935 13.1959 5.83752C6.97691 6.00085 3.36003 11.6825 2.39928 13.4197C2.20016 13.779 2.20016 14.2212 2.39928 14.5805C3.10691 15.8604 6.93191 22.1662 13.5278 22.1662C13.62 22.1662 13.7123 22.165 13.8045 22.1627C20.0224 21.9982 23.6404 16.3177 24.6012 14.5805C24.7992 14.2212 24.7992 13.779 24.6012 13.4197Z" fill="#333333"/>
<mask id="mask0_215_391" style="mask-type:luminance" maskUnits="userSpaceOnUse" x="2" y="5" width="23" height="18">
<path fill-rule="evenodd" clip-rule="evenodd" d="M13.5 15.75C12.5696 15.75 11.8125 14.9648 11.8125 14C11.8125 13.0352 12.5696 12.25 13.5 12.25C14.4304 12.25 15.1875 13.0352 15.1875 14C15.1875 14.9648 14.4304 15.75 13.5 15.75ZM13.5 9.91665C11.3287 9.91665 9.5625 11.7483 9.5625 14C9.5625 16.2517 11.3287 18.0833 13.5 18.0833C15.6712 18.0833 17.4375 16.2517 17.4375 14C17.4375 11.7483 15.6712 9.91665 13.5 9.91665ZM13.7472 19.8305C8.90291 19.9472 5.74278 15.6504 4.69428 13.9949C5.84853 12.1224 8.75553 8.28868 13.2533 8.16968C18.0784 8.04252 21.2565 12.3499 22.305 14.0054C21.1519 15.8779 18.2438 19.7115 13.7472 19.8305ZM24.6012 13.4197C23.8834 12.1224 19.9189 5.61935 13.1959 5.83752C6.97691 6.00085 3.36003 11.6825 2.39928 13.4197C2.20016 13.779 2.20016 14.2212 2.39928 14.5805C3.10691 15.8604 6.93191 22.1662 13.5278 22.1662C13.62 22.1662 13.7123 22.165 13.8045 22.1627C20.0224 21.9982 23.6404 16.3177 24.6012 14.5805C24.7992 14.2212 24.7992 13.779 24.6012 13.4197Z" fill="white"/>
</mask>
<g mask="url(#mask0_215_391)">
</g>
</svg>
