<svg width="52" height="52" viewBox="0 0 52 52" fill="none" xmlns="http://www.w3.org/2000/svg">
<path d="M4.0144 44.512C4.2744 46.176 5.6888 47.3824 7.3736 47.3824H44.6264C46.3112 47.3824 47.7256 46.176 47.9856 44.512L51.5632 21.3408C51.7192 20.3632 51.4384 19.3648 50.7936 18.616C50.3453 18.0861 49.7411 17.7112 49.0672 17.5448V12.9168C49.0645 11.8474 48.6384 10.8227 47.8823 10.0665C47.1261 9.31036 46.1014 8.88434 45.032 8.8816H20.9248V7.5088C20.9248 5.9176 19.6248 4.6176 18.0336 4.6176H10.4936C8.9024 4.6176 7.6024 5.9176 7.6024 7.5088V8.8816H6.968C4.7424 8.8816 2.9328 10.6912 2.9328 12.9168V17.5448C2.2776 17.7216 1.664 18.0752 1.2064 18.6056C0.561602 19.3648 0.280802 20.3528 0.436802 21.3408L4.0144 44.512ZM9.6824 7.5088C9.6824 7.0616 10.0464 6.6976 10.4936 6.6976H18.0336C18.4808 6.6976 18.8448 7.0616 18.8448 7.5088V8.8816H9.6824V7.5088ZM5.0128 12.9168C5.0128 11.8352 5.8968 10.9616 6.968 10.9616H45.032C46.1032 10.9616 46.9872 11.8352 46.9872 12.9168V17.4304H44.3248V14.4248C44.3248 13.8528 43.8568 13.3848 43.2848 13.3848H8.7152C8.1432 13.3848 7.6752 13.8528 7.6752 14.4248V17.4304H5.0128V12.9168ZM42.2448 15.4648V17.4304H9.7552V15.4648H42.2448ZM2.7872 19.968C3.0472 19.6664 3.3904 19.5104 3.7856 19.5104H48.2144C48.6096 19.5104 48.9632 19.6664 49.2128 19.968C49.4624 20.2592 49.5768 20.6336 49.5144 21.0184L45.9264 44.1896C45.8328 44.8344 45.2816 45.3024 44.6264 45.3024H7.3736C6.7184 45.3024 6.1672 44.8344 6.0736 44.1896L2.4856 21.0184C2.4232 20.6336 2.5376 20.2592 2.7872 19.968Z" fill="#0073A7"/>
<path d="M11.9746 25.2377H40.0254C40.3013 25.2377 40.5658 25.1281 40.7608 24.9331C40.9559 24.738 41.0654 24.4735 41.0654 24.1977C41.0654 23.9219 40.9559 23.6573 40.7608 23.4623C40.5658 23.2673 40.3013 23.1577 40.0254 23.1577H11.9746C11.6987 23.1577 11.4342 23.2673 11.2392 23.4623C11.0441 23.6573 10.9346 23.9219 10.9346 24.1977C10.9346 24.4735 11.0441 24.738 11.2392 24.9331C11.4342 25.1281 11.6987 25.2377 11.9746 25.2377ZM11.9746 30.7091H40.0254C40.3013 30.7091 40.5658 30.5996 40.7608 30.4045C40.9559 30.2095 41.0654 29.9449 41.0654 29.6691C41.0654 29.3933 40.9559 29.1288 40.7608 28.9337C40.5658 28.7387 40.3013 28.6291 40.0254 28.6291H11.9746C11.6987 28.6291 11.4342 28.7387 11.2392 28.9337C11.0441 29.1288 10.9346 29.3933 10.9346 29.6691C10.9346 29.9449 11.0441 30.2095 11.2392 30.4045C11.4342 30.5996 11.6987 30.7091 11.9746 30.7091ZM11.9746 36.1795H40.0254C40.3013 36.1795 40.5658 36.07 40.7608 35.8749C40.9559 35.6799 41.0654 35.4153 41.0654 35.1395C41.0654 34.8637 40.9559 34.5992 40.7608 34.4041C40.5658 34.2091 40.3013 34.0995 40.0254 34.0995H11.9746C11.6987 34.0995 11.4342 34.2091 11.2392 34.4041C11.0441 34.5992 10.9346 34.8637 10.9346 35.1395C10.9346 35.4153 11.0441 35.6799 11.2392 35.8749C11.4342 36.07 11.6987 36.1795 11.9746 36.1795ZM11.9746 41.6499H40.0254C40.3013 41.6499 40.5658 41.5404 40.7608 41.3453C40.9559 41.1503 41.0654 40.8858 41.0654 40.6099C41.0654 40.3341 40.9559 40.0696 40.7608 39.8745C40.5658 39.6795 40.3013 39.5699 40.0254 39.5699H11.9746C11.6987 39.5699 11.4342 39.6795 11.2392 39.8745C11.0441 40.0696 10.9346 40.3341 10.9346 40.6099C10.9346 40.8858 11.0441 41.1503 11.2392 41.3453C11.4342 41.5404 11.6987 41.6499 11.9746 41.6499Z" fill="#0073A7"/>
</svg>
