<svg width="20" height="20" viewBox="0 0 20 20" fill="none" xmlns="http://www.w3.org/2000/svg">
<path d="M11.6906 8.41563H8.30939C8.22651 8.41563 8.14702 8.3827 8.08842 8.3241C8.02981 8.26549 7.99689 8.18601 7.99689 8.10313V6.375C7.99689 6.29212 8.02981 6.21263 8.08842 6.15403C8.14702 6.09542 8.22651 6.0625 8.30939 6.0625H11.6906C11.7735 6.0625 11.853 6.09542 11.9116 6.15403C11.9702 6.21263 12.0031 6.29212 12.0031 6.375V8.10313C12.0031 8.18601 11.9702 8.26549 11.9116 8.3241C11.853 8.3827 11.7735 8.41563 11.6906 8.41563ZM8.62189 7.79063H11.3781V6.6875H8.62189V7.79063ZM11.6906 18.0438H8.30939C8.22651 18.0438 8.14702 18.0108 8.08842 17.9522C8.02981 17.8936 7.99689 17.8141 7.99689 17.7313V16.0063C7.99689 15.9234 8.02981 15.8439 8.08842 15.7853C8.14702 15.7267 8.22651 15.6938 8.30939 15.6938H11.6906C11.7735 15.6938 11.853 15.7267 11.9116 15.7853C11.9702 15.8439 12.0031 15.9234 12.0031 16.0063V17.7313C12.0031 17.8141 11.9702 17.8936 11.9116 17.9522C11.853 18.0108 11.7735 18.0438 11.6906 18.0438ZM8.62189 17.4188H11.3781V16.3188H8.62189V17.4188Z" fill="black"/>
<path d="M11.2031 16.3188H8.79688C8.71399 16.3188 8.63451 16.2858 8.5759 16.2272C8.5173 16.1686 8.48438 16.0891 8.48438 16.0063V8.10313C8.48438 8.02025 8.5173 7.94076 8.5759 7.88215C8.63451 7.82355 8.71399 7.79063 8.79688 7.79063H11.2031C11.286 7.79063 11.3655 7.82355 11.4241 7.88215C11.4827 7.94076 11.5156 8.02025 11.5156 8.10313V16.0063C11.5156 16.0891 11.4827 16.1686 11.4241 16.2272C11.3655 16.2858 11.286 16.3188 11.2031 16.3188ZM9.10938 15.6938H10.8906V8.41563H9.10938V15.6938ZM17.3438 8.41563H13.9625C13.8796 8.41563 13.8001 8.3827 13.7415 8.3241C13.6829 8.26549 13.65 8.18601 13.65 8.10313V6.375C13.65 6.29212 13.6829 6.21263 13.7415 6.15403C13.8001 6.09542 13.8796 6.0625 13.9625 6.0625H17.3438C17.4266 6.0625 17.5061 6.09542 17.5647 6.15403C17.6233 6.21263 17.6562 6.29212 17.6562 6.375V8.10313C17.6562 8.18601 17.6233 8.26549 17.5647 8.3241C17.5061 8.3827 17.4266 8.41563 17.3438 8.41563ZM14.275 7.79063H17.0312V6.6875H14.275V7.79063ZM17.3438 18.0438H13.9625C13.8796 18.0438 13.8001 18.0108 13.7415 17.9522C13.6829 17.8936 13.65 17.8141 13.65 17.7313V16.0063C13.65 15.9234 13.6829 15.8439 13.7415 15.7853C13.8001 15.7267 13.8796 15.6938 13.9625 15.6938H17.3438C17.4266 15.6938 17.5061 15.7267 17.5647 15.7853C17.6233 15.8439 17.6562 15.9234 17.6562 16.0063V17.7313C17.6562 17.8141 17.6233 17.8936 17.5647 17.9522C17.5061 18.0108 17.4266 18.0438 17.3438 18.0438ZM14.275 17.4188H17.0312V16.3188H14.275V17.4188Z" fill="black"/>
<path d="M16.8562 16.3188H14.45C14.3671 16.3188 14.2876 16.2858 14.229 16.2272C14.1704 16.1686 14.1375 16.0891 14.1375 16.0063V8.10313C14.1375 8.02025 14.1704 7.94076 14.229 7.88215C14.2876 7.82355 14.3671 7.79063 14.45 7.79063H16.8562C16.9391 7.79063 17.0186 7.82355 17.0772 7.88215C17.1358 7.94076 17.1687 8.02025 17.1687 8.10313V16.0063C17.1687 16.0891 17.1358 16.1686 17.0772 16.2272C17.0186 16.2858 16.9391 16.3188 16.8562 16.3188ZM14.7625 15.6938H16.5437V8.41563H14.7625V15.6938ZM6.0375 8.41563H2.65625C2.57337 8.41563 2.49388 8.3827 2.43528 8.3241C2.37667 8.26549 2.34375 8.18601 2.34375 8.10313V6.375C2.34375 6.29212 2.37667 6.21263 2.43528 6.15403C2.49388 6.09542 2.57337 6.0625 2.65625 6.0625H6.0375C6.12038 6.0625 6.19987 6.09542 6.25847 6.15403C6.31708 6.21263 6.35 6.29212 6.35 6.375V8.10313C6.35 8.18601 6.31708 8.26549 6.25847 8.3241C6.19987 8.3827 6.12038 8.41563 6.0375 8.41563ZM2.96875 7.79063H5.725V6.6875H2.96875V7.79063ZM6.0375 18.0438H2.65625C2.57337 18.0438 2.49388 18.0108 2.43528 17.9522C2.37667 17.8936 2.34375 17.8141 2.34375 17.7313V16.0063C2.34375 15.9234 2.37667 15.8439 2.43528 15.7853C2.49388 15.7267 2.57337 15.6938 2.65625 15.6938H6.0375C6.12038 15.6938 6.19987 15.7267 6.25847 15.7853C6.31708 15.8439 6.35 15.9234 6.35 16.0063V17.7313C6.35 17.8141 6.31708 17.8936 6.25847 17.9522C6.19987 18.0108 6.12038 18.0438 6.0375 18.0438ZM2.96875 17.4188H5.725V16.3188H2.96875V17.4188Z" fill="black"/>
<path d="M5.55002 16.3188H3.14377C3.06089 16.3188 2.98141 16.2858 2.9228 16.2272C2.8642 16.1686 2.83127 16.0891 2.83127 16.0063V8.10314C2.83127 8.02026 2.8642 7.94077 2.9228 7.88217C2.98141 7.82356 3.06089 7.79064 3.14377 7.79064H5.55002C5.63291 7.79064 5.71239 7.82356 5.771 7.88217C5.8296 7.94077 5.86252 8.02026 5.86252 8.10314V16.0063C5.86252 16.0891 5.8296 16.1686 5.771 16.2272C5.71239 16.2858 5.63291 16.3188 5.55002 16.3188ZM3.45627 15.6938H5.23752V8.41564H3.45627V15.6938ZM18.5063 19.5469H1.49377C1.41089 19.5469 1.33141 19.514 1.2728 19.4554C1.2142 19.3968 1.18127 19.3173 1.18127 19.2344V17.7313C1.18127 17.6484 1.2142 17.5689 1.2728 17.5103C1.33141 17.4517 1.41089 17.4188 1.49377 17.4188H18.5063C18.5892 17.4188 18.6686 17.4517 18.7272 17.5103C18.7859 17.5689 18.8188 17.6484 18.8188 17.7313V19.2344C18.8188 19.3173 18.7859 19.3968 18.7272 19.4554C18.6686 19.514 18.5892 19.5469 18.5063 19.5469ZM1.80627 18.9219H18.1938V18.0438H1.80627V18.9219ZM18.0125 6.68751H1.98752C1.90464 6.68751 1.82516 6.65459 1.76655 6.59598C1.70795 6.53738 1.67502 6.45789 1.67502 6.37501V4.87189C1.67502 4.78901 1.70795 4.70952 1.76655 4.65092C1.82516 4.59231 1.90464 4.55939 1.98752 4.55939H18.0125C18.0954 4.55939 18.1749 4.59231 18.2335 4.65092C18.2921 4.70952 18.325 4.78901 18.325 4.87189V6.37501C18.325 6.45789 18.2921 6.53738 18.2335 6.59598C18.1749 6.65459 18.0954 6.68751 18.0125 6.68751ZM2.30002 6.06251H17.7V5.18439H2.30002V6.06251Z" fill="black"/>
<path d="M2.58124 5.18436C2.49836 5.18436 2.41887 5.15143 2.36027 5.09283C2.30166 5.03422 2.26874 4.95474 2.26874 4.87186V3.30936C2.26857 3.24384 2.28899 3.17993 2.32713 3.12666C2.36526 3.07339 2.41917 3.03344 2.48124 3.01248L9.89999 0.46873C9.93952 0.452285 9.98202 0.44414 10.0248 0.4448C10.0676 0.445461 10.1099 0.454913 10.1489 0.47257C10.1879 0.490227 10.2228 0.515712 10.2516 0.547444C10.2803 0.579176 10.3023 0.616477 10.316 0.657034C10.3297 0.69759 10.335 0.740536 10.3314 0.783207C10.3279 0.825878 10.3156 0.867363 10.2953 0.905088C10.2751 0.942813 10.2473 0.975973 10.2137 1.00251C10.1801 1.02905 10.1414 1.0484 10.1 1.05936L2.89374 3.53123V4.87186C2.89374 4.95474 2.86081 5.03422 2.80221 5.09283C2.7436 5.15143 2.66412 5.18436 2.58124 5.18436Z" fill="black"/>
<path d="M17.4188 5.18436C17.3359 5.18436 17.2564 5.15143 17.1978 5.09283C17.1392 5.03422 17.1063 4.95474 17.1063 4.87186V3.53123L9.9 1.05936C9.85861 1.0484 9.81991 1.02905 9.78631 1.00251C9.7527 0.975973 9.72491 0.942813 9.70466 0.905088C9.6844 0.867363 9.67211 0.825878 9.66856 0.783207C9.665 0.740536 9.67026 0.69759 9.68399 0.657034C9.69772 0.616477 9.71965 0.579176 9.74839 0.547444C9.77714 0.515712 9.81211 0.490227 9.85112 0.47257C9.89013 0.454913 9.93235 0.445461 9.97516 0.4448C10.018 0.44414 10.0605 0.452285 10.1 0.46873L17.5188 3.01248C17.5808 3.03344 17.6347 3.07339 17.6729 3.12666C17.711 3.17993 17.7314 3.24384 17.7313 3.30936V4.87186C17.7313 4.95474 17.6983 5.03422 17.6397 5.09283C17.5811 5.15143 17.5016 5.18436 17.4188 5.18436Z" fill="black"/>
</svg>
