<svg width="14" height="18" viewBox="0 0 14 18" fill="none" xmlns="http://www.w3.org/2000/svg">
<path d="M12.907 4.48C12.843 4.2398 12.7128 3.984 12.6166 3.76C11.4648 0.992 8.9482 0 6.9162 0C4.196 0 1.2 1.824 0.799999 5.5838V6.352C0.799999 6.384 0.810999 6.672 0.826799 6.816C1.051 8.6078 2.4648 10.512 3.5208 12.3038C4.6568 14.2236 5.8356 16.112 7.0038 17.9996C7.7238 16.7678 8.4414 15.5198 9.1452 14.3198C9.337 13.9676 9.5594 13.6156 9.7514 13.2796C9.8794 13.0558 10.1238 12.832 10.2356 12.6238C11.3714 10.5444 13.2 8.448 13.2 6.384V5.536C13.2 5.3122 12.9226 4.5282 12.907 4.48ZM6.966 8.336C6.1664 8.336 5.2912 7.9362 4.8592 6.832C4.7948 6.6562 4.8 6.304 4.8 6.2718V5.7758C4.8 4.3682 5.9952 3.728 7.035 3.728C8.315 3.728 9.3052 4.7522 9.3052 6.0322C9.3052 7.3122 8.246 8.336 6.966 8.336Z" fill="#0073A7"/>
</svg>
