<svg width="26" height="28" viewBox="0 0 26 28" fill="none" xmlns="http://www.w3.org/2000/svg">
<path fill-rule="evenodd" clip-rule="evenodd" d="M1.3 7.47933H24.7C25.48 7.47933 26 6.95264 26 6.16261C26 5.37257 25.48 4.84589 24.7 4.84589H1.3C0.52 4.84589 0 5.37257 0 6.16261C0 6.95264 0.52 7.47933 1.3 7.47933ZM26 14.063C26 14.853 25.48 15.3797 24.7 15.3797H1.3C0.52 15.3797 0 14.853 0 14.063C0 13.273 0.52 12.7463 1.3 12.7463H24.7C25.48 12.7463 26 13.273 26 14.063ZM1.3 20.6463H24.7C25.48 20.6463 26 21.173 26 21.963C26 22.7531 25.48 23.2797 24.7 23.2797H1.3C0.52 23.2797 0 22.7531 0 21.963C0 21.173 0.52 20.6463 1.3 20.6463Z" fill="#0073A7"/>
<mask id="mask0_215_44" style="mask-type:luminance" maskUnits="userSpaceOnUse" x="0" y="4" width="26" height="20">
<path fill-rule="evenodd" clip-rule="evenodd" d="M1.3 7.47933H24.7C25.48 7.47933 26 6.95264 26 6.16261C26 5.37257 25.48 4.84589 24.7 4.84589H1.3C0.52 4.84589 0 5.37257 0 6.16261C0 6.95264 0.52 7.47933 1.3 7.47933ZM26 14.063C26 14.853 25.48 15.3797 24.7 15.3797H1.3C0.52 15.3797 0 14.853 0 14.063C0 13.273 0.52 12.7463 1.3 12.7463H24.7C25.48 12.7463 26 13.273 26 14.063ZM1.3 20.6463H24.7C25.48 20.6463 26 21.173 26 21.963C26 22.7531 25.48 23.2797 24.7 23.2797H1.3C0.52 23.2797 0 22.7531 0 21.963C0 21.173 0.52 20.6463 1.3 20.6463Z" fill="white"/>
</mask>
<g mask="url(#mask0_215_44)">
<rect x="-2.59973" y="-1.73737" width="31.2" height="31.6013" fill="#0073A7"/>
</g>
</svg>
