<svg width="24" height="24" viewBox="0 0 24 24" fill="none" xmlns="http://www.w3.org/2000/svg">
<g clip-path="url(#clip0_215_311)">
<path d="M8.9419 7.31451L11.8053 4.56148C11.9147 4.45626 12.0874 4.45747 12.1953 4.56258L12.1954 4.56269L12.1971 4.56432L15.0295 7.3156L15.0313 7.3174L15.1183 7.39524C15.1801 7.45054 15.2115 7.52709 15.2116 7.60398H15.2128V11.6798C15.2128 11.8351 15.0868 11.9611 14.9315 11.9611H9.06848C8.91316 11.9611 8.78723 11.8351 8.78723 11.6798V7.58193C8.78723 7.49489 8.82678 7.41709 8.88887 7.36551L8.94189 7.3145L8.9419 7.31451ZM11.9988 5.15369L9.34975 7.70061V11.3986H14.6503V7.7286C14.6462 7.7251 14.6423 7.72149 14.6384 7.71771L11.9988 5.15369Z" fill="black"/>
<path d="M11.2297 8.92035H12.7703C12.9256 8.92035 13.0516 9.04628 13.0516 9.2016V11.6838C13.0516 11.8391 12.9256 11.965 12.7703 11.965H11.2297C11.0743 11.965 10.9484 11.8391 10.9484 11.6838V9.2016C10.9484 9.04628 11.0743 8.92035 11.2297 8.92035ZM12.4891 9.48285H11.5109V11.4025H12.4891V9.48285ZM8.09728 7.40007C7.98504 7.50685 7.80746 7.50242 7.70068 7.39019C7.59389 7.27795 7.59832 7.10037 7.71056 6.99359L11.8066 3.10389C11.9155 3.00033 12.0858 3.00138 12.1933 3.10389L16.2894 6.99359C16.4016 7.10037 16.4061 7.27795 16.2993 7.39019C16.1925 7.50242 16.0149 7.50685 15.9027 7.40007L12 3.69399L8.09728 7.40007ZM4.31921 16.3229L7.18261 13.5699C7.29199 13.4647 7.46469 13.4659 7.57262 13.571L7.57273 13.5711L7.57442 13.5728L10.4068 16.324L10.4086 16.3259L10.4956 16.4037C10.5574 16.459 10.5888 16.5355 10.5889 16.6124H10.59V20.6882C10.59 20.8436 10.4641 20.9695 10.3088 20.9695H4.4458C4.29048 20.9695 4.16455 20.8436 4.16455 20.6882V16.5904C4.16455 16.5033 4.20409 16.4255 4.26619 16.3739L4.31921 16.3229ZM7.37608 14.1621L4.72706 16.709V20.407H10.0276V16.737C10.0235 16.7335 10.0196 16.7299 10.0157 16.7262L7.37608 14.1621Z" fill="black"/>
<path d="M6.60699 17.9288H8.14764C8.30296 17.9288 8.42889 18.0547 8.42889 18.21V20.6922C8.42889 20.8475 8.30296 20.9734 8.14764 20.9734H6.60699C6.45166 20.9734 6.32574 20.8475 6.32574 20.6922V18.21C6.32574 18.0547 6.45166 17.9288 6.60699 17.9288ZM7.86639 18.4913H6.88824V20.4109H7.86639V18.4913ZM3.47461 16.4085C3.36238 16.5153 3.1848 16.5108 3.07801 16.3986C2.97123 16.2864 2.97566 16.1088 3.08789 16.002L7.18396 12.1123C7.29281 12.0088 7.46309 12.0098 7.57068 12.1123L11.6667 16.002C11.779 16.1088 11.7834 16.2864 11.6766 16.3986C11.5698 16.5108 11.3923 16.5153 11.28 16.4085L7.37732 12.7024L3.47461 16.4085ZM13.5646 16.3229L16.428 13.5699C16.5373 13.4647 16.71 13.4659 16.818 13.571L16.8181 13.5711L16.8198 13.5728L19.6522 16.324L19.654 16.3258L19.7409 16.4037C19.8027 16.459 19.8342 16.5355 19.8342 16.6124H19.8354V20.6882C19.8354 20.8436 19.7095 20.9695 19.5542 20.9695H13.6912C13.5358 20.9695 13.4099 20.8436 13.4099 20.6882V16.5904C13.4099 16.5033 13.4494 16.4256 13.5115 16.374L13.5646 16.3229ZM16.6214 14.1621L13.9724 16.709V20.407H19.2729V16.737C19.2689 16.7335 19.2649 16.7299 19.261 16.7261L16.6214 14.1621Z" fill="black"/>
<path d="M15.8524 17.9288H17.3931C17.5484 17.9288 17.6743 18.0547 17.6743 18.21V20.6922C17.6743 20.8475 17.5484 20.9734 17.3931 20.9734H15.8524C15.6971 20.9734 15.5712 20.8475 15.5712 20.6922V18.21C15.5712 18.0547 15.6971 17.9288 15.8524 17.9288ZM17.1118 18.4913H16.1337V20.4109H17.1118V18.4913ZM12.72 16.4085C12.6078 16.5153 12.4302 16.5108 12.3234 16.3986C12.2166 16.2864 12.221 16.1088 12.3333 16.002L16.4294 12.1123C16.5382 12.0088 16.7085 12.0098 16.8161 12.1123L20.9121 16.002C21.0244 16.1088 21.0288 16.2864 20.922 16.3986C20.8152 16.5108 20.6377 16.5153 20.5254 16.4085L16.6227 12.7024L12.72 16.4085Z" fill="black"/>
</g>
<defs>
<clipPath id="clip0_215_311">
<rect width="24" height="24" fill="white"/>
</clipPath>
</defs>
</svg>
