<svg width="20" height="20" viewBox="0 0 20 20" fill="none" xmlns="http://www.w3.org/2000/svg">
<path d="M3.52813 17.3531H3.4375C3.35542 17.3488 3.275 17.3284 3.20082 17.293C3.12664 17.2576 3.06016 17.2079 3.00517 17.1469C2.89411 17.0235 2.83661 16.8611 2.84531 16.6953C2.85402 16.5296 2.92821 16.374 3.05157 16.263C3.17494 16.1519 3.33737 16.0944 3.50313 16.1031C3.58142 16.1082 3.65992 16.0969 3.73362 16.07C3.80733 16.0431 3.87463 16.0012 3.93125 15.9469C3.98735 15.8931 4.03203 15.8286 4.06263 15.7572C4.09324 15.6858 4.10914 15.6089 4.10938 15.5312V3.59688C4.11267 2.8915 4.39477 2.21605 4.89414 1.71785C5.39351 1.21966 6.06962 0.939142 6.775 0.9375H16.15C16.8584 0.938327 17.5375 1.22009 18.0384 1.72099C18.5393 2.22188 18.821 2.901 18.8219 3.60938V14.9781C18.8219 15.1439 18.756 15.3029 18.6388 15.4201C18.5216 15.5373 18.3626 15.6031 18.1969 15.6031C18.0311 15.6031 17.8721 15.5373 17.7549 15.4201C17.6377 15.3029 17.5719 15.1439 17.5719 14.9781V3.59688C17.5686 3.22356 17.4186 2.86651 17.1544 2.60281C16.8901 2.33912 16.5327 2.18995 16.1594 2.1875H6.78438C6.40727 2.1875 6.04561 2.3373 5.77896 2.60396C5.51231 2.87061 5.3625 3.23227 5.3625 3.60938V15.5312C5.3625 15.7708 5.31527 16.0079 5.22352 16.2292C5.13177 16.4504 4.99729 16.6514 4.82778 16.8206C4.65827 16.9898 4.45706 17.124 4.23566 17.2153C4.01426 17.3067 3.77702 17.3535 3.5375 17.3531H3.52813Z" fill="#222222"/>
<path d="M16.1594 19.0625H3.84063C3.13226 19.0616 2.45314 18.7799 1.95224 18.279C1.45135 17.7781 1.16958 17.099 1.16876 16.3906V6.9156C1.16756 6.42836 1.30008 5.95014 1.5519 5.53301C1.80372 5.11589 2.16517 4.77587 2.59688 4.54998C2.74358 4.47248 2.91505 4.45644 3.07358 4.50537C3.23211 4.55431 3.3647 4.66422 3.44219 4.81091C3.51969 4.95761 3.53573 5.12908 3.48679 5.28761C3.43786 5.44614 3.32795 5.57873 3.18126 5.65623C2.95274 5.77583 2.76105 5.95534 2.62674 6.17553C2.49242 6.39572 2.42053 6.64831 2.41876 6.90623V16.4031C2.42205 16.778 2.57331 17.1365 2.83961 17.4004C3.1059 17.6644 3.46568 17.8125 3.84063 17.8125H16.1594C16.4271 17.812 16.6893 17.7362 16.9159 17.5936C17.1425 17.451 17.3244 17.2474 17.4406 17.0062C17.4761 16.9322 17.5259 16.8658 17.587 16.8109C17.6482 16.7561 17.7195 16.7138 17.797 16.6865C17.8745 16.6593 17.9566 16.6475 18.0386 16.652C18.1206 16.6564 18.2009 16.677 18.275 16.7125C18.3491 16.748 18.4154 16.7977 18.4703 16.8589C18.5251 16.92 18.5674 16.9913 18.5947 17.0688C18.622 17.1463 18.6337 17.2284 18.6293 17.3104C18.6248 17.3924 18.6043 17.4728 18.5688 17.5469C18.3493 17.9997 18.0072 18.3819 17.5812 18.6498C17.1552 18.9178 16.6626 19.0608 16.1594 19.0625ZM15.7281 7.78435C15.5624 7.78435 15.4034 7.7185 15.2862 7.60129C15.169 7.48408 15.1031 7.32511 15.1031 7.15935V5.1781H12.0563V6.53435H13.7125C13.8783 6.53435 14.0372 6.6002 14.1544 6.71741C14.2717 6.83462 14.3375 6.99359 14.3375 7.15935C14.3375 7.32511 14.2717 7.48408 14.1544 7.60129C14.0372 7.7185 13.8783 7.78435 13.7125 7.78435H11.4313C11.2655 7.78435 11.1065 7.7185 10.9893 7.60129C10.8721 7.48408 10.8063 7.32511 10.8063 7.15935V4.5531C10.8063 4.38734 10.8721 4.22837 10.9893 4.11116C11.1065 3.99395 11.2655 3.9281 11.4313 3.9281H15.7281C15.8939 3.9281 16.0529 3.99395 16.1701 4.11116C16.2873 4.22837 16.3531 4.38734 16.3531 4.5531V7.15935C16.3531 7.32511 16.2873 7.48408 16.1701 7.60129C16.0529 7.7185 15.8939 7.78435 15.7281 7.78435ZM9.1625 5.1781H7.20625C7.04049 5.1781 6.88152 5.11225 6.76431 4.99504C6.6471 4.87783 6.58125 4.71886 6.58125 4.5531C6.58125 4.38734 6.6471 4.22837 6.76431 4.11116C6.88152 3.99395 7.04049 3.9281 7.20625 3.9281H9.1625C9.32827 3.9281 9.48724 3.99395 9.60445 4.11116C9.72166 4.22837 9.7875 4.38734 9.7875 4.5531C9.7875 4.71886 9.72166 4.87783 9.60445 4.99504C9.48724 5.11225 9.32827 5.1781 9.1625 5.1781Z" fill="#222222"/>
<path d="M9.1625 7.78436H7.20625C7.04049 7.78436 6.88152 7.71851 6.76431 7.6013C6.6471 7.48409 6.58125 7.32512 6.58125 7.15936C6.58125 6.9936 6.6471 6.83463 6.76431 6.71742C6.88152 6.60021 7.04049 6.53436 7.20625 6.53436H9.1625C9.32826 6.53436 9.48723 6.60021 9.60444 6.71742C9.72165 6.83463 9.7875 6.9936 9.7875 7.15936C9.7875 7.32512 9.72165 7.48409 9.60444 7.6013C9.48723 7.71851 9.32826 7.78436 9.1625 7.78436ZM15.725 10.3906H13.8094C13.6436 10.3906 13.4846 10.3248 13.3674 10.2076C13.2502 10.0903 13.1844 9.93137 13.1844 9.76561C13.1844 9.59985 13.2502 9.44088 13.3674 9.32367C13.4846 9.20646 13.6436 9.14061 13.8094 9.14061H15.725C15.8908 9.14061 16.0497 9.20646 16.1669 9.32367C16.2842 9.44088 16.35 9.59985 16.35 9.76561C16.35 9.93137 16.2842 10.0903 16.1669 10.2076C16.0497 10.3248 15.8908 10.3906 15.725 10.3906ZM11.8969 10.3906H7.20938C7.04362 10.3906 6.88465 10.3248 6.76744 10.2076C6.65023 10.0903 6.58438 9.93137 6.58438 9.76561C6.58438 9.59985 6.65023 9.44088 6.76744 9.32367C6.88465 9.20646 7.04362 9.14061 7.20938 9.14061H11.8969C12.0626 9.14061 12.2216 9.20646 12.3388 9.32367C12.456 9.44088 12.5219 9.59985 12.5219 9.76561C12.5219 9.93137 12.456 10.0903 12.3388 10.2076C12.2216 10.3248 12.0626 10.3906 11.8969 10.3906ZM15.725 12.9969H10.4625C10.2967 12.9969 10.1378 12.931 10.0206 12.8138C9.90335 12.6966 9.8375 12.5376 9.8375 12.3719C9.8375 12.2061 9.90335 12.0471 10.0206 11.9299C10.1378 11.8127 10.2967 11.7469 10.4625 11.7469H15.725C15.8908 11.7469 16.0497 11.8127 16.1669 11.9299C16.2842 12.0471 16.35 12.2061 16.35 12.3719C16.35 12.5376 16.2842 12.6966 16.1669 12.8138C16.0497 12.931 15.8908 12.9969 15.725 12.9969ZM8.52813 12.9969H7.20625C7.04049 12.9969 6.88152 12.931 6.76431 12.8138C6.6471 12.6966 6.58125 12.5376 6.58125 12.3719C6.58125 12.2061 6.6471 12.0471 6.76431 11.9299C6.88152 11.8127 7.04049 11.7469 7.20625 11.7469H8.52813C8.69389 11.7469 8.85286 11.8127 8.97007 11.9299C9.08728 12.0471 9.15313 12.2061 9.15313 12.3719C9.15313 12.5376 9.08728 12.6966 8.97007 12.8138C8.85286 12.931 8.69389 12.9969 8.52813 12.9969ZM15.725 15.6031H7.20625C7.04049 15.6031 6.88152 15.5373 6.76431 15.4201C6.6471 15.3028 6.58125 15.1439 6.58125 14.9781C6.58125 14.8124 6.6471 14.6534 6.76431 14.5362C6.88152 14.419 7.04049 14.3531 7.20625 14.3531H15.725C15.8908 14.3531 16.0497 14.419 16.1669 14.5362C16.2842 14.6534 16.35 14.8124 16.35 14.9781C16.35 15.1439 16.2842 15.3028 16.1669 15.4201C16.0497 15.5373 15.8908 15.6031 15.725 15.6031Z" fill="#222222"/>
</svg>
