<svg width="52" height="52" viewBox="0 0 52 52" fill="none" xmlns="http://www.w3.org/2000/svg">
<g clip-path="url(#clip0_215_352)">
<path d="M47.8064 8.3871H38.928L33.8957 3.35484H30.1935V0H9.64181C8.02498 0 6.70968 1.31531 6.70968 2.93213V8.3871H4.19355C1.88123 8.3871 0 10.2683 0 12.5806V41.0968C0 43.4091 1.88123 45.2903 4.19355 45.2903H15.9355V46.9677H12.5806C11.6558 46.9677 10.9032 47.7203 10.9032 48.6452V50.3226C10.9032 51.2475 11.6558 52 12.5806 52H39.4194C40.3442 52 41.0968 51.2475 41.0968 50.3226V48.6452C41.0968 47.7203 40.3442 46.9677 39.4194 46.9677H36.0645V45.2903H47.8064C50.1188 45.2903 52 43.4091 52 41.0968V12.5806C52 10.2683 50.1188 8.3871 47.8064 8.3871ZM31.871 27.6774C31.871 24.4402 34.5046 21.8065 37.7419 21.8065C40.9792 21.8065 43.6129 24.4402 43.6129 27.6774C43.6129 30.9146 40.9792 33.5484 37.7419 33.5484C34.5046 33.5484 31.871 30.9146 31.871 27.6774ZM37.7419 20.129C33.5797 20.129 30.1935 23.5152 30.1935 27.6774C30.1935 28.5595 30.347 29.406 30.6263 30.1935H26.8387V26.0284C26.8387 25.2452 26.5337 24.5089 25.98 23.9551L25.1613 23.1364V10.0215C25.1613 8.67362 24.2479 7.50394 22.9403 7.17694L17.6129 5.84518V5.03226H32.7097V11.7419H39.4194V20.3192C38.8794 20.1962 38.3185 20.129 37.7419 20.129ZM34.3871 6.2183L38.2333 10.0645H34.3871V6.2183ZM8.3871 2.93213C8.3871 2.2403 8.94998 1.67742 9.64181 1.67742H28.5161V3.35484H15.9355V5.42582L8.3871 3.53873V2.93213ZM8.3871 5.26773L10.0645 5.68708V10.0645H11.7419V6.10644L22.5335 8.80435C23.0931 8.94421 23.4839 9.44481 23.4839 10.0215V23.8312L24.7937 25.1412C25.0308 25.3782 25.1613 25.6932 25.1613 26.0284V32.2937C25.1613 32.9855 24.5984 33.5484 23.9066 33.5484C23.7384 33.5484 23.5748 33.5154 23.4197 33.4501L11.7419 28.5331V15.0968H10.0645V27.8268L9.15483 27.4438C8.68851 27.2475 8.3871 26.7935 8.3871 26.2875V5.26773ZM8.50389 28.9898L22.7687 34.996C23.1308 35.1485 23.5135 35.2258 23.9066 35.2258C25.5234 35.2258 26.8387 33.9105 26.8387 32.2937V31.871H31.4691C32.8249 33.8924 35.1304 35.2258 37.7419 35.2258C41.9041 35.2258 45.2903 31.8396 45.2903 27.6774C45.2903 24.7199 43.5798 22.1557 41.0968 20.9183V13.4194H46.9677V36.9032H5.03226V13.4194H6.70968V26.2875C6.70968 27.4702 7.41398 28.5309 8.50389 28.9898ZM39.4204 50.3226C39.4204 50.3226 39.4201 50.3226 39.4194 50.3226H12.5806V48.6452H39.4194L39.4204 50.3226ZM34.3871 46.9677H17.6129V45.2903H34.3871V46.9677ZM40.2581 43.6129H38.5806V41.9355H40.2581V43.6129ZM46.9677 43.6129H45.2903V41.9355H46.9677V43.6129ZM50.3226 41.0968C50.3226 42.1901 49.6213 43.1224 48.6452 43.4686V40.2581H43.6129V43.6129H41.9355V40.2581H36.9032V43.6129H4.19355C2.80622 43.6129 1.67742 42.4842 1.67742 41.0968V12.5806C1.67742 11.1932 2.80622 10.0645 4.19355 10.0645H6.70968V11.7419H5.03226C4.10737 11.7419 3.35484 12.4945 3.35484 13.4194V36.9032C3.35484 37.8281 4.10737 38.5806 5.03226 38.5806H46.9677C47.8926 38.5806 48.6452 37.8281 48.6452 36.9032V13.4194C48.6452 12.4945 47.8926 11.7419 46.9677 11.7419H41.0968V10.5559L40.6054 10.0645H47.8064C49.1938 10.0645 50.3226 11.1932 50.3226 12.5806V41.0968Z" fill="#0073A7"/>
<path d="M41.6898 25.7544L40.5037 24.5682L36.0645 29.0074L34.9802 27.9231L33.794 29.1092L36.0645 31.3797L41.6898 25.7544Z" fill="#0073A7"/>
<path d="M37.7419 13.4194H36.0645V15.0968H37.7419V13.4194Z" fill="#0073A7"/>
<path d="M34.3871 13.4194H26.8387V15.0968H34.3871V13.4194Z" fill="#0073A7"/>
<path d="M37.7419 16.7742H26.8387V18.4516H37.7419V16.7742Z" fill="#0073A7"/>
<path d="M11.7419 11.7419H10.0645V13.4194H11.7419V11.7419Z" fill="#0073A7"/>
</g>
<defs>
<clipPath id="clip0_215_352">
<rect width="52" height="52" fill="white"/>
</clipPath>
</defs>
</svg>
