<svg width="18" height="19" viewBox="0 0 18 19" fill="none" xmlns="http://www.w3.org/2000/svg">
<path d="M13.0444 12.0083L11.6023 12.8403C11.4292 12.9401 11.2291 12.9791 11.0323 12.9514C10.8355 12.9237 10.653 12.8309 10.5127 12.687L5.69955 7.75784C5.55918 7.614 5.46858 7.42711 5.44156 7.22564C5.41454 7.02417 5.45258 6.81917 5.5499 6.64191L6.36231 5.16506C6.50855 4.89926 6.5658 4.59173 6.52533 4.28947C6.48485 3.98721 6.34888 3.70683 6.13817 3.49116L3.97679 1.27765C3.85011 1.14785 3.6997 1.04488 3.53415 0.974634C3.3686 0.904383 3.19116 0.868225 3.01196 0.868225C2.83277 0.868225 2.65533 0.904383 2.48978 0.974634C2.32423 1.04488 2.17382 1.14785 2.04714 1.27765L1.06576 2.28199C0.491877 2.8697 0.126326 3.63703 0.027231 4.46196C-0.0718644 5.2869 0.101184 6.12209 0.518861 6.83472L1.01127 7.6752C3.52592 11.9673 7.07527 15.5256 11.3189 18.0089L11.4161 18.0661C12.8658 18.9144 14.6568 18.6672 15.8175 17.4792L16.8423 16.4296C16.9691 16.2999 17.0696 16.1459 17.1382 15.9763C17.2068 15.8068 17.2421 15.6251 17.2421 15.4415C17.2421 15.258 17.2068 15.0763 17.1382 14.9068C17.0696 14.7372 16.9691 14.5832 16.8423 14.4534L14.6796 12.2385C14.469 12.0225 14.1951 11.883 13.8998 11.8414C13.6045 11.7998 13.3041 11.8584 13.0444 12.0083Z" fill="#0073A7"/>
</svg>
