<svg width="20" height="18" viewBox="0 0 20 18" fill="none" xmlns="http://www.w3.org/2000/svg">
<path d="M17.9883 4.09375H14.2109C14.2422 3.9375 14.2578 3.80859 14.2578 3.66016V2.375C14.2578 1.27734 13.3633 0.382812 12.2656 0.382812H7.1875C6.08984 0.382812 5.19531 1.27734 5.19531 2.375V3.66016C5.19531 3.80859 5.21094 3.9375 5.24219 4.09375H2.01172C0.902344 4.09375 0 4.99219 0 6.10156V16.1836C0 17.293 0.902344 18.1953 2.01172 18.1953H17.9883C19.0977 18.1953 20 17.293 20 16.1836V6.10156C20 4.99219 19.0977 4.09375 17.9883 4.09375ZM6.75781 3.66016V2.375C6.75781 2.14062 6.95312 1.94531 7.1875 1.94531H12.2656C12.5 1.94531 12.6953 2.14062 12.6953 2.375V3.66016C12.6953 3.88672 12.5117 4.09375 12.2891 4.09375H7.16406C6.94141 4.09375 6.75781 3.88672 6.75781 3.66016ZM18.4375 16.1836C18.4375 16.4258 18.2305 16.6328 17.9883 16.6328H2.01172C1.76953 16.6328 1.5625 16.4258 1.5625 16.1836V6.10156C1.5625 5.85938 1.76953 5.65625 2.01172 5.65625H17.9883C18.2305 5.65625 18.4375 5.85547 18.4375 6.10156V16.1836Z" fill="black"/>
<path d="M13.3203 14.2891H6.67969C6.25 14.2891 5.89844 14.6406 5.89844 15.0703C5.89844 15.5 6.25 15.8516 6.67969 15.8516H13.3203C13.75 15.8516 14.1016 15.5 14.1016 15.0703C14.1016 14.6406 13.75 14.2891 13.3203 14.2891Z" fill="black"/>
</svg>
